<svg width="309" height="351" viewBox="0 0 309 351" fill="none" xmlns="http://www.w3.org/2000/svg"><g opacity=".1"><path d="M113.314 248.743c6.043 3.489 13.77 1.418 17.258-4.624 3.488-6.042 1.418-13.769-4.624-17.257-6.043-3.489-13.769-1.419-17.258 4.624-3.488 6.042-1.418 13.768 4.624 17.257zM189.048 110.215a8.098 8.098 0 1 0 8.098-14.026 8.098 8.098 0 0 0-8.098 14.026z" fill="#0066B8"/><path d="M217.147 145.634l-20.834 18.665-8.255-30.172 29.09 11.507zM190.868 268.8l-27.38-21.496 35.178-16.636-7.798 38.132z" fill="#FF455D"/><path d="M204.169 197.745l-14.536 17.503-10.229-23.298 24.765 5.795zM71.515 247.441l-14.49-2.555-2.555 14.49 14.49 2.555 2.555-14.49zM192.794 50.472l-12.441-2.193-2.194 12.44 12.442 2.195 2.193-12.442z" fill="#FF8500"/><path d="M5.496 262.547a6.254 6.254 0 1 0 6.255-10.833 6.254 6.254 0 0 0-6.255 10.833z" fill="#FF455D"/><path d="M155.971 145.559a6.254 6.254 0 1 0 6.254-10.833 6.254 6.254 0 0 0-6.254 10.833zM170.878 26.6a6.254 6.254 0 1 0 6.254-10.833 6.254 6.254 0 0 0-6.254 10.832z" fill="#FF8500"/></g></svg>