<svg width="379" height="397" viewBox="0 0 379 397" fill="none" xmlns="http://www.w3.org/2000/svg"><g opacity=".1"><path d="M87.492 141.207c7.157 8.53 19.874 9.642 28.403 2.485 8.53-7.157 9.642-19.874 2.485-28.404-7.157-8.53-19.874-9.642-28.403-2.485-8.53 7.158-9.642 19.874-2.485 28.404zM159.627 197.81c3.758 4.478 10.435 5.062 14.913 1.304 4.479-3.758 5.063-10.435 1.305-14.913-3.758-4.479-10.434-5.063-14.913-1.305-4.478 3.758-5.062 10.435-1.305 14.913zM212.224 243.425a6.514 6.514 0 1 0 9.98-8.374 6.514 6.514 0 0 0-9.98 8.374z" fill="#0066B8"/><path d="M120.699 389.797a8.175 8.175 0 1 0 12.525-10.51 8.175 8.175 0 0 0-12.525 10.51zM202.367 163.017a8.175 8.175 0 1 0 12.525-10.51 8.175 8.175 0 0 0-12.525 10.51z" fill="#FF8500"/><path d="M126.715 221.586l-25.026-8.188 20.707-20.926 4.32 29.114z" fill="#FF455D"/><path d="M110.417 278.092L82.9 262.206l-15.886 27.516 27.515 15.886 15.887-27.516z" fill="#FF8500"/><path d="M225.519 98.883c3.857 4.393 10.545 4.828 14.938.971 4.394-3.857 4.829-10.545.972-14.938-3.857-4.394-10.546-4.829-14.939-.972-4.393 3.857-4.828 10.545-.971 14.939z" fill="#0066B8"/><path d="M310.448 103.93l-10.598 35-29.7-28.099 40.298-6.9z" fill="#FF455D"/><path d="M190.489 95.564l-7.933 14.483 14.483 7.933 7.933-14.484-14.483-7.932z" fill="#FF8500"/></g></svg>