<svg width="1440" height="430" viewBox="0 0 1440 430" fill="none" xmlns="http://www.w3.org/2000/svg"><mask id="b" maskUnits="userSpaceOnUse" x="0" y="0" width="1441" height="430"><path d="M1441 0H0v430h1441V0z" fill="url(#a)"/></mask><g mask="url(#b)" fill-rule="evenodd" clip-rule="evenodd"><path opacity=".5" d="M584.875 74.901v-2.095C584.875 32.475 552.454 0 512.19 0c-40.002 0-72.423 32.475-72.423 72.806 0 2.619 0 4.976.523 7.595h-.261c2.091 7.333 3.398 15.19 3.398 23.046 0 45.57-37.126 82.496-82.619 82.496-31.898 0-59.612-18.07-73.208-44.521 0 0 0 .262-.261.262-19.609-23.047-47.585-36.927-80.267-36.927-59.611 0-107.72 48.188-107.72 107.899 0 27.237 9.936 51.855 26.408 70.973 21.439 17.023 35.035 43.736 35.035 73.33 0 46.617-33.989 85.376-78.437 92.972h-.784c-4.968.785-9.674 1.047-14.642 1.047-3.137 0-6.275 0-9.15-.262C24.838 457.001 0 486.072 0 520.903c0 39.546 32.159 71.759 71.639 71.759 3.137 0 6.275-.262 9.15-.524C112.95 811.342 301.459 980 529.447 980c250.735 0 453.625-203.49 453.625-454.121 0-232.298-173.868-423.741-398.196-450.978zM360.547 157.66c31.636 0 57.258-25.665 57.258-57.354 0-31.427-25.622-57.093-57.258-57.093-31.375 0-56.997 25.666-56.997 57.093 0 31.689 25.622 57.354 56.997 57.354zM128.898 358.008c0 31.689-25.623 57.092-57.259 57.092-31.375 0-56.997-25.403-56.997-57.092s25.622-57.355 56.997-57.355c31.636 0 57.259 25.666 57.259 57.355z" transform="translate(902 -82)" fill="url(#c)"/><path d="M335.038 79.953c-21.322 8.38-45.269-2.136-53.634-23.499-8.365-21.198 2.132-45.19 23.455-53.57 21.158-8.38 45.105 2.137 53.469 23.334 8.365 21.363-2.132 45.354-23.29 53.735zM645.688 312.8l1.476-.492c26.899-10.681 40.184-41.081 29.687-68.195-10.661-27.114-41.004-40.424-68.067-29.743-1.641.657-3.445 1.479-4.921 2.3l-.164-.164c-4.264 3.451-9.185 6.245-14.597 8.381-30.672 11.995-65.28-3.122-77.253-33.851-8.529-21.527-3.608-45.025 10.497-61.129v-.164c10.005-19.39 12.138-41.903 3.445-63.922C510.045 25.56 464.94 5.842 424.92 21.617c-18.37 7.066-32.312 20.377-40.677 36.48-5.904 19.062-20.174 35.33-40.184 43.218-31.327 12.324-66.427-.493-83.157-28.593h-.164c0-.164 0-.328-.164-.492-1.64-2.959-3.28-6.245-4.593-9.532a93.428 93.428 0 0 1-2.132-6.244c-12.957-20.54-39.036-29.578-62.491-20.376-26.571 10.352-39.692 40.588-29.195 67.209.12.288.24.579.36.873.707 1.718 1.448 3.523 2.428 5.207C25.864 188.9-37.446 360.619 22.748 514.427c66.1 169.09 256.36 252.402 424.97 186.18 156.145-61.293 238.81-229.233 197.97-387.807zM530.875 183.312c8.365 21.198 32.312 31.715 53.47 23.499 21.322-8.381 31.819-32.372 23.454-53.735-8.364-21.198-32.311-31.714-53.469-23.498-21.323 8.381-31.82 32.536-23.455 53.734z" transform="translate(316 332)" fill="url(#d)"/></g><defs><linearGradient id="a" x2="1" gradientUnits="userSpaceOnUse" gradientTransform="matrix(-1339 360.5 -13994.1 -11594.5 8355.53 5745.26)"><stop stop-color="#632774"/><stop offset="1" stop-color="#CB4272"/><stop offset="1" stop-color="#CB4272"/></linearGradient><linearGradient id="c" x2="1" gradientUnits="userSpaceOnUse" gradientTransform="matrix(-283.387 -35.1364 -99.1065 -137.399 554.074 506.759)"><stop stop-color="#198CFF"/><stop offset=".909" stop-color="#1885F2"/></linearGradient><linearGradient id="d" x2="1" gradientUnits="userSpaceOnUse" gradientTransform="matrix(143.289 321.659 -506.103 226.181 669.959 -112.393)"><stop offset=".115" stop-color="#FFAC44"/><stop offset=".835" stop-color="#FF295C"/></linearGradient></defs></svg>