<svg width="32" height="32" viewBox="0 0 32 32" fill="none" xmlns="http://www.w3.org/2000/svg"><path fill-rule="evenodd" clip-rule="evenodd" d="M16 29.334c7.352 0 13.333-5.982 13.333-13.334A1.334 1.334 0 0 1 32 16c0 8.823-7.177 16-16 16S0 24.823 0 16 7.177 0 16 0c4.295 0 8.327 1.679 11.354 4.727a1.333 1.333 0 1 1-1.892 1.878A13.244 13.244 0 0 0 16 2.666C8.648 2.667 2.667 8.649 2.667 16c0 7.352 5.98 13.334 13.333 13.334zm5.057-17.61a1.332 1.332 0 1 1 1.886 1.885l-6.667 6.667c-.26.26-.601.39-.943.39-.34 0-.682-.13-.942-.39l-3.334-3.333a1.334 1.334 0 0 1 1.886-1.886l2.39 2.39 5.724-5.723z" fill="url(#a)"/><defs><linearGradient id="a" x2="1" gradientUnits="userSpaceOnUse" gradientTransform="matrix(12.6663 9.33317 45.5266 427.235 -12.096 -202.284)"><stop stop-color="#632774"/><stop offset="1" stop-color="#CB4272"/><stop offset="1" stop-color="#CB4272"/></linearGradient></defs></svg>