<svg width="280" height="66" viewBox="0 0 280 66" fill="none" xmlns="http://www.w3.org/2000/svg"><g filter="url(#a)" fill="#fff"><path d="M28.555 13.715a2.673 2.673 0 0 1-2.67 2.68 2.68 2.68 0 0 1-2.678-2.68 2.687 2.687 0 0 1 2.678-2.69 2.68 2.68 0 0 1 2.67 2.69zm26.5 19.953C55.054 45.458 45.534 55 33.79 55c-10.67 0-19.503-7.904-21.014-18.212a3.328 3.328 0 0 1-.412.034A3.374 3.374 0 0 1 9 33.461c0-1.646 1.159-3 2.713-3.301.128 0 .283.017.429.017.223 0 .446-.017.67-.06h.042a4.424 4.424 0 0 0 3.683-4.37 4.385 4.385 0 0 0-1.648-3.44 5.12 5.12 0 0 1-1.236-3.317c0-2.802 2.266-5.069 5.047-5.069 1.52 0 2.85.656 3.76 1.724h.017a3.85 3.85 0 0 0 3.425 2.086 3.877 3.877 0 0 0 3.872-3.87c0-.37-.06-.75-.172-1.086h.026c-.026-.13-.026-.241-.026-.362a3.396 3.396 0 1 1 6.79 0v.095c10.508 1.276 18.662 10.274 18.662 21.16zm-9.684-10.55h-2.566a4.23 4.23 0 0 0-4 2.887c-.172.492-.335 1-.507 1.526-.54 1.56-1.081 3.137-1.64 4.672a792.442 792.442 0 0 1-1.63 4.49c-.524 1.422-.988 2.663-1.443 3.698a54.623 54.623 0 0 1-1.459-3.698c-.498-1.448-1.047-2.93-1.605-4.49-.541-1.56-1.1-3.112-1.623-4.69a45.672 45.672 0 0 1-.523-1.508 4.233 4.233 0 0 0-4.01-2.887H21.62c.49 1.483 1.09 3.19 1.76 5.085a256.182 256.182 0 0 0 2.266 5.973 168.615 168.615 0 0 0 2.575 6.31c.567 1.292 1.125 2.568 1.683 3.826a3.926 3.926 0 0 0 3.588 2.31c1.537 0 2.936-.896 3.597-2.327a201.55 201.55 0 0 0 1.665-3.81c.893-2.12 1.751-4.223 2.558-6.309a173.442 173.442 0 0 0 2.24-5.973 343.745 343.745 0 0 0 1.82-5.085zm-33.006 0a2.674 2.674 0 0 0-2.67 2.69 2.672 2.672 0 0 0 2.67 2.68 2.68 2.68 0 0 0 2.678-2.68 2.682 2.682 0 0 0-2.678-2.69zM85.924 20.955h5.991c-.566 1.603-1.21 3.413-1.931 5.43a262.784 262.784 0 0 1-2.395 6.37 231.848 231.848 0 0 1-2.738 6.73 168.478 168.478 0 0 1-2.92 6.543h-5.364a190.215 190.215 0 0 1-2.945-6.56 265.09 265.09 0 0 1-2.755-6.723 249.395 249.395 0 0 1-2.395-6.36 206.975 206.975 0 0 1-1.889-5.43h6.198c.464 1.448.987 3.016 1.554 4.688a492.462 492.462 0 0 0 1.751 5.008c.592 1.655 1.159 3.25 1.708 4.775a53.286 53.286 0 0 0 1.563 3.948 90.494 90.494 0 0 0 1.536-3.94 492.648 492.648 0 0 0 1.726-4.774 345.819 345.819 0 0 0 1.742-5.008c.575-1.672 1.099-3.24 1.562-4.697zm8.833 25.073h5.374V26.997h-5.374v19.03zm2.67-27.71c-.868 0-1.614.284-2.25.844-.644.569-.961 1.344-.961 2.336 0 .99.318 1.767.961 2.335.636.57 1.382.845 2.25.845.866 0 1.613-.276 2.248-.845.636-.568.953-1.344.953-2.335 0-.992-.317-1.767-.953-2.336a3.288 3.288 0 0 0-2.249-.845zm22.379 10.67c-.627-.776-1.477-1.37-2.541-1.793-1.073-.422-2.412-.63-4.018-.63a28.47 28.47 0 0 0-4.54.345c-1.443.225-2.619.474-3.538.742v18.376h5.374V31.34c.335-.052.721-.095 1.15-.13.43-.034.842-.051 1.228-.051 1.245 0 2.103.362 2.558 1.086.455.724.687 1.947.687 3.689v10.093h5.365V35.28c0-1.302-.129-2.483-.395-3.543s-.712-1.982-1.33-2.75zm16.584 1.068a236.143 236.143 0 0 1-1.012 3.327c-.352 1.12-.704 2.215-1.065 3.276-.36 1.06-.704 2.025-1.013 2.896a49.409 49.409 0 0 1-1.03-2.896 212.234 212.234 0 0 1-2.069-6.603 86.414 86.414 0 0 1-.85-3.06h-5.691c1.133 3.81 2.335 7.335 3.597 10.568 1.27 3.232 2.515 6.05 3.742 8.463h4.456c1.227-2.413 2.48-5.231 3.742-8.463 1.262-3.233 2.464-6.758 3.597-10.567h-5.554a86.2 86.2 0 0 1-.85 3.06zm25.788 2.336c.463 1.224.686 2.586.686 4.086 0 1.49-.214 2.861-.644 4.102-.437 1.25-1.064 2.31-1.88 3.19a8.426 8.426 0 0 1-2.935 2.042c-1.142.483-2.421.724-3.837.724-1.391 0-2.662-.241-3.803-.724a8.426 8.426 0 0 1-2.936-2.043c-.816-.879-1.45-1.939-1.906-3.189-.463-1.24-.687-2.611-.687-4.102 0-1.5.232-2.862.704-4.086.464-1.232 1.116-2.284 1.94-3.154a8.892 8.892 0 0 1 2.962-2.026c1.142-.483 2.378-.724 3.725-.724 1.374 0 2.627.241 3.769.724a8.618 8.618 0 0 1 2.936 2.026c.815.87 1.45 1.922 1.906 3.154zm-4.79 4.086c0-1.664-.335-2.974-.988-3.93-.66-.949-1.605-1.423-2.833-1.423-1.227 0-2.171.474-2.85 1.422-.669.957-1.004 2.267-1.004 3.93 0 1.664.335 2.983 1.004 3.965.679.974 1.623 1.466 2.85 1.466 1.228 0 2.172-.492 2.833-1.466.653-.982.987-2.3.987-3.964zm7.176-10.714h7.537v20.263h5.614V25.764h7.537v-4.81h-20.688v4.81zm31.495 1.034c-.403-.06-.815-.112-1.227-.146a12.598 12.598 0 0 0-1.039-.052c-1.614 0-3.073.147-4.378.448-1.313.302-2.446.62-3.408.966v18.013h5.365v-14.54c.241-.077.601-.138 1.065-.198a9.87 9.87 0 0 1 1.21-.095c.747 0 1.442.07 2.086.198.653.138 1.22.259 1.7.38l.901-4.448a6.14 6.14 0 0 0-1.047-.31 20.347 20.347 0 0 0-1.228-.216zm19.461 4.25c.266.965.395 2.042.395 3.223v11.213c-.764.173-1.837.371-3.202.595-1.374.233-3.03.345-4.979.345-1.219 0-2.335-.103-3.33-.319-.996-.224-1.855-.577-2.576-1.069a4.892 4.892 0 0 1-1.657-1.939c-.386-.793-.575-1.775-.575-2.93 0-1.112.215-2.052.661-2.819a5.098 5.098 0 0 1 1.786-1.844c.746-.466 1.596-.793 2.558-1 .961-.207 1.957-.31 2.987-.31.704 0 1.322.034 1.863.094.541.06.978.138 1.313.233v-.508c0-.914-.274-1.647-.832-2.207-.55-.552-1.51-.827-2.885-.827-.91 0-1.81.069-2.695.198-.893.13-1.657.319-2.309.56l-.687-4.344a16.15 16.15 0 0 1 1.176-.302c.463-.112.98-.206 1.528-.293a30.422 30.422 0 0 1 1.751-.215c.61-.06 1.228-.095 1.854-.095 1.588 0 2.902.181 3.966.543 1.056.362 1.897.88 2.541 1.56.635.672 1.082 1.491 1.348 2.457zm-4.756 6.981a10.299 10.299 0 0 0-.97-.138 10.208 10.208 0 0 0-1.193-.078c-.506 0-.979.035-1.425.095-.446.06-.833.173-1.167.345a2.067 2.067 0 0 0-.799.681c-.189.293-.283.655-.283 1.086 0 .845.283 1.43.841 1.758.567.328 1.348.492 2.327.492.532 0 1.038-.018 1.52-.044.48-.017.857-.06 1.15-.103V38.03zm20.122-7.973c-.326 1.095-.67 2.207-1.013 3.327-.352 1.12-.704 2.215-1.073 3.276-.36 1.06-.696 2.025-1.013 2.896a66.15 66.15 0 0 1-1.03-2.896 245.801 245.801 0 0 1-2.061-6.602 85.88 85.88 0 0 1-.849-3.06h-5.692c1.125 3.81 2.327 7.334 3.597 10.567 1.262 3.232 2.515 6.05 3.743 8.463h4.455c1.228-2.413 2.472-5.231 3.743-8.463 1.262-3.233 2.463-6.758 3.597-10.567h-5.554c-.24.94-.524 1.956-.85 3.06zm23.297-1.086c1.563 1.655 2.344 4.086 2.344 7.292 0 .31-.009.655-.034 1.026-.026.379-.052.707-.069 1h-12.18c.12 1.111.634 1.99 1.544 2.637.92.655 2.137.983 3.683.983.978 0 1.948-.095 2.893-.276.952-.181 1.725-.405 2.326-.672l.721 4.378c-.283.146-.67.293-1.15.44-.48.137-1.013.267-1.606.379a26.95 26.95 0 0 1-1.888.267c-.678.078-1.348.112-2.026.112-1.7 0-3.185-.259-4.447-.758-1.262-.509-2.309-1.199-3.133-2.086-.833-.88-1.442-1.922-1.837-3.129a12.479 12.479 0 0 1-.6-3.904c0-1.69.257-3.164.78-4.43.515-1.268 1.194-2.328 2.035-3.172a8.35 8.35 0 0 1 2.901-1.914 8.927 8.927 0 0 1 3.365-.655c2.696 0 4.816.828 6.378 2.482zm-2.84 5.629a5.484 5.484 0 0 0-.24-1.345 3.312 3.312 0 0 0-.61-1.155 3.38 3.38 0 0 0-1.048-.836c-.42-.215-.944-.319-1.562-.319-.6 0-1.116.104-1.554.302-.429.207-.79.482-1.082.819a3.655 3.655 0 0 0-.66 1.172 6.912 6.912 0 0 0-.344 1.362h7.1zm16.103 7.016c-.386-.173-.678-.388-.884-.656a2.23 2.23 0 0 1-.412-.973 7.396 7.396 0 0 1-.112-1.302V17.955l-5.365.862V39.77c0 1.008.103 1.922.31 2.732.197.81.583 1.491 1.15 2.06.566.57 1.33 1.009 2.31 1.319.97.319 2.24.483 3.801.508l.756-4.447c-.653-.052-1.168-.155-1.554-.327z"/></g><defs><filter id="a" x="0" y="0" width="280" height="66" filterUnits="userSpaceOnUse" color-interpolation-filters="sRGB"><feFlood flood-opacity="0" result="BackgroundImageFix"/><feColorMatrix in="SourceAlpha" values="0 0 0 0 0 0 0 0 0 0 0 0 0 0 0 0 0 0 255 0"/><feOffset dx="1" dy="1"/><feGaussianBlur stdDeviation="5"/><feColorMatrix values="0 0 0 0 0 0 0 0 0 0 0 0 0 0 0 0 0 0 0.1 0"/><feBlend in2="BackgroundImageFix" result="effect1_dropShadow"/><feBlend in="SourceGraphic" in2="effect1_dropShadow" result="shape"/></filter></defs></svg>