<svg width="292" height="252" viewBox="0 0 292 252" fill="none" xmlns="http://www.w3.org/2000/svg"><path d="M276.469 121.17c7.513-14.642 12.735-41.303-26.885-66.092-36.984-23.122-56.904 4.148-56.904 4.148s5.329-22.362-25.136-23.849c-30.465-1.487-38.794 14.776-55.753 20.741-16.958 5.965-22.343-5.59-52.183 7.86-16.629 7.486-12.328 19.735-7.261 30.038-13.965 8.945-22.344 23.945-21.17 42.366-.651 2.01-1.027 4.1-1.118 6.21-.335 9.359 8.809 11.585 15.534 19.283-7.513 14.64-12.736 41.303 26.885 66.09 36.962 23.123 56.892-4.147 56.892-4.147s-5.329 22.362 25.137 23.849c30.465 1.487 38.793-14.776 55.752-20.741 16.959-5.965 22.344 5.59 52.183-7.86 16.63-7.486 12.328-19.735 7.262-30.038 13.965-8.945 22.343-23.944 21.17-42.365a23.444 23.444 0 0 0 1.118-6.211c.324-9.36-8.82-11.584-15.523-19.282z" fill="#C8EEFC"/><path d="M184.217 222.744l-2.893-2.795s16.048-25.666 18.6-35.047c0 0-35.592-26.136-22.689-56.291 0 0 33.8 11.091 25.527 52.405 0 0 15.34-24.933 25.394-52.165 0 0-30.242-14.748-17.545-40.81 0 0 21.785 4.136 23.89 27.549 0 0 9.156-20.992 11.44-33.476 0 0-22.567-11.544-14.395-35.863 0 0 16.328 8.788 18.143 26.22l6.497-24.532s-7.374-24.75 10.903-40.643c0 0 12.848 21.535-7.083 40.095l-7.915 25.99s17.07-17.548 31.499-7.267c0 0-16.758 24.481-34.286 17.392 0 0-6.737 24.297-14.736 39.76 0 0 17.479-26.17 41.721-14.424 0 0-7.926 24.56-42.626 20.182a450.937 450.937 0 0 1-27.303 52.68s13.149-28.965 47.854-24.598c0 0-1.894 31.866-50.424 32.056a213.001 213.001 0 0 1-19.573 33.582z" fill="#9FDAAF"/><path d="M64.613 105.64c0 5.472-3.748 9.911-6.653 9.911-2.904 0-7.72-3.824-7.72-9.297 0-5.473 4.832-10.532 7.737-10.532 2.905 0 6.636 4.438 6.636 9.917z" fill="#C8EEFC"/><path d="M100.134 187.875l-2.486-.413s-.86-19.165-2.877-24.968c0 0-27.588-.659-31.66-21.014 0 0 21.32-6.507 31.738 17.968 0 0-.966-18.527-5.463-36.338 0 0-20.79 3.315-23.522-14.849 0 0 12.675-5.758 22.07 5.64 0 0-2.748-14.233-6.005-21.55 0 0-15.702 2.197-20.142-13.418 0 0 11.518-1.364 18.64 7.039l-5.374-15.095s-12.58-10.186-8.826-25.085c0 0 14.255 6.53 10.613 23.414l5.162 16.385s2.547-15.318 13.607-15.228c0 0 .067 18.818-11.457 21.49 0 0 5.162 15.094 6.541 26.018 0 0-.307-19.947 16.334-22.641 0 0 4.641 15.653-14.758 25.968a289.122 289.122 0 0 1 4.664 37.294s-3.52-19.83 15.88-30.155c0 0 10.34 17.247-14.523 34.968a136.772 136.772 0 0 1 1.844 24.57z" fill="#7DBF8C"/><path d="M184.217 222.744l-2.893-2.795s16.048-25.666 18.6-35.047c0 0-35.592-26.136-22.689-56.291 0 0 33.8 11.091 25.527 52.405 0 0 15.34-24.933 25.394-52.165 0 0-30.242-14.748-17.545-40.81 0 0 21.785 4.136 23.89 27.549 0 0 9.156-20.992 11.44-33.476 0 0-22.567-11.544-14.395-35.863 0 0 16.328 8.788 18.143 26.22l6.497-24.532s-7.374-24.75 10.903-40.643c0 0 12.848 21.535-7.083 40.095l-7.915 25.99s17.07-17.548 31.499-7.267c0 0-16.758 24.481-34.286 17.392 0 0-6.737 24.297-14.736 39.76 0 0 17.479-26.17 41.721-14.424 0 0-7.926 24.56-42.626 20.182a450.937 450.937 0 0 1-27.303 52.68s13.149-28.965 47.854-24.598c0 0-1.894 31.866-50.424 32.056a213.001 213.001 0 0 1-19.573 33.582z" fill="#9FDAAF"/><path d="M33.958 146.701s0-8.229-2.464-9.459c-2.463-1.23-13.154-9.46-14.797-11.93-1.642-2.471-7.82-18.924-3.697-18.102 4.122.822 17.69 13.574 17.69 13.574s-2.877-9.052-1.642-10.695c1.234-1.644 8.194 9.9 9.015 11.93.822 2.03 2.877 25.504 2.877 25.504l-6.982-.822zM135.475 20.411c-2.877 3.701-18.087 32.498-17.26 41.136.826 8.637.82 16.866 13.154 22.624l-23.036 36.612-7.82 31.263 39.045.413s28.773-11.93 28.773-16.453c0-4.522-9.865-49.364-9.865-49.364l7.82-55.53-23.823-14.402-5.586 2.952-1.402.75z" fill="#FFC6CA"/><path d="M157.26 44.685s-9.864 36.613-6.574 51.009c3.29 14.395 41.1 22.619 41.1 22.619l21.372 38.256s16.032 34.963 36.169 16.453c20.137-18.51 43.569-113.946-13.965-108.596 0 0 8.222-8.638-4.932-19.332-13.155-10.695-32.058-11.517-32.058-11.517s3.29-30.44-34.526-33.32c-37.816-2.879-36.99 19.333-36.99 19.333s-40.307 54.3-6.999 81.862l11.507-17.275s-15.64-10.287-13.155-22.625c2.486-12.338 17.26-41.135 17.26-41.135s2.062 17.275 21.791 24.268z" fill="#25228A"/><path d="M120.678 124.899c8.156 2.94 24.662-12.339 33.706-23.447 0 0 15.21 10.695 25.482 13.166a493.604 493.604 0 0 0-4.932 67.46c0 35.78 2.463 64.583 2.463 64.583S162.532 251.5 149.5 251.5c-10.968 0-39.077-3.604-39.898-6.897-.821-3.293-8.653-42.37-13.557-50.186-4.905-7.816-11.92-41.135-6.575-51.008 5.346-9.873 16.032-32.498 16.032-32.498l14.383-9.459s-9.479 19.746.793 23.447z" fill="#FF769D"/><path d="M.184 27.19C.597 25.132.184-1.193 7.172.042 14.16 1.278 28.957 14.018 30.19 36.655c1.235 22.636-3.698 93.792-3.698 93.792l-21.785 1.644S.184 55.425.184 43.425c-.414-9.81 0-16.235 0-16.235z" transform="translate(171.695 114.575)" fill="url(#a)"/><path d="M74.784 0C69.85.822 48.066 8.637 46.01 25.504c-2.056 16.867-8.223 69.932-8.223 69.932l-21.784-60.88L0 33.32s8.63 70.753 28.36 88.856c19.729 18.102 28.359-12.752 28.359-12.752l10.278-34.556L74.784 0z" transform="translate(30.69 110.911)" fill="url(#b)"/><path d="M153.58 85.228c-5 0-17.63-6.362-23.422-9.42a.772.772 0 0 1 .72-1.364c11.563 6.094 22.254 10.326 23.371 9.207 2.235-2.236 8.295-12.735 8.876-13.747.559-1.822 9.234-31.603 6.145-38.882-3.274-7.855-11.317-15.575-21.835-15.184a.753.753 0 0 1-.8-.743.773.773 0 0 1 .744-.8c11.283-.413 19.846 7.788 23.349 16.107 3.351 7.977-5.748 38.708-6.145 40.011l-.067.162c-.268.475-6.658 11.64-9.166 14.15a2.418 2.418 0 0 1-1.77.503z" fill="#0B52FF"/><path d="M113.36 65.885c-1.161 1.42.408 4.713 3.28 5.328 2.87.615 11.518 6.479 13.232 3.544 1.715-2.935-1.558-4.981-5.245-6.418-3.686-1.437-9.434-4.707-11.266-2.454zM169.672 43.137c4.15.788 10.853 10.454 5.122 22.138-5.73 11.685-11.881 11.277-14.132 11.07-2.251-.207-9.831-4.713-6.966-15.99 2.866-11.275 8.396-18.632 15.976-17.218z" fill="#0B52FF"/><path d="M26.411 109.994c-.478.093-.965.14-1.452.14h-4.173a7.686 7.686 0 0 1-1.083-.134h-.045v.559a3.406 3.406 0 0 0 3.402 3.404 3.4 3.4 0 0 0 3.402-3.404v-.56l-.05-.005z" fill="#0F3872"/><path d="M13.614 103.9a7.74 7.74 0 0 0 5.184 5.854c.28.09.566.166.855.223h.044c.358.07.72.116 1.084.135h4.173c.487 0 .973-.047 1.452-.14h.045a7.707 7.707 0 0 0 4.434-2.669 7.719 7.719 0 0 0 1.75-4.873v-4.21a22.637 22.637 0 0 1-7.117 4.473c-4.564 1.845-9.055 2.203-11.904 1.207z" fill="#003BA4"/><path d="M21.15 110.134h-.37.37zM26.411 109.994zM20.781 110.123z" fill="#0F3872"/><path d="M17.814 58.77c1.624-4.806.818-9.42-1.8-10.307-2.619-.886-6.058 2.29-7.682 7.096-1.625 4.805-.819 9.42 1.8 10.306 2.618.887 6.057-2.29 7.682-7.096z" fill="#FEFAF6"/><path d="M41.108 8.737A23.05 23.05 0 0 0 22.98 0 23.031 23.031 0 0 0 4.904 8.841a23.075 23.075 0 0 0-4.25 19.682 23.074 23.074 0 0 0 4.626 9.235 23.049 23.049 0 0 0 8.189 6.289v11.488h19.17V44.052a23.05 23.05 0 0 0 8.207-6.317 23.075 23.075 0 0 0 4.71-19.636 23.075 23.075 0 0 0-4.448-9.357v-.005zM10.128 25.96c-2.62-.889-3.424-5.5-1.804-10.303 1.62-4.802 5.05-7.983 7.687-7.122 2.636.86 3.424 5.5 1.798 10.303-1.625 4.802-5.06 8.011-7.68 7.122z" transform="translate(0 39.896)" fill="url(#c)"/><path d="M32.64 95.436H13.469v7.01c0 .49.046.98.14 1.46 2.848 1 7.34.632 11.909-1.219a22.637 22.637 0 0 0 7.116-4.472V95.42l.006.016z" fill="#0062C7"/><defs><linearGradient id="a" x2="1" gradientUnits="userSpaceOnUse" gradientTransform="matrix(-53 43 -2710.06 1388.71 1370.34 -736.929)"><stop stop-color="#632774"/><stop offset="1" stop-color="#CB4272"/><stop offset="1" stop-color="#CB4272"/></linearGradient><linearGradient id="b" x2="1" gradientUnits="userSpaceOnUse" gradientTransform="matrix(95 77 1911.96 4443.26 -976.669 -2157.54)"><stop stop-color="#632774"/><stop offset="1" stop-color="#CB4272"/><stop offset="1" stop-color="#CB4272"/></linearGradient><linearGradient id="c" x2="1" gradientUnits="userSpaceOnUse" gradientTransform="matrix(45.4175 54.8688 -76.3717 82.2422 38.186 -41.121)"><stop offset=".115" stop-color="#FF8744"/><stop offset=".835" stop-color="#FF295C"/></linearGradient></defs></svg>