<svg width="46" height="46" viewBox="0 0 46 46" fill="none" xmlns="http://www.w3.org/2000/svg"><circle cx="23" cy="23" r="23" fill="#E3F0FF"/><path d="M18.49 27.94c-1.02 0-1.876-.33-2.566-.99-.69-.66-1.035-1.485-1.035-2.475 0-.51.09-1.05.27-1.62.18-.57.48-1.305.9-2.205l2.925-6.03h3.42l-1.845 7.02c1.02.72 1.53 1.68 1.53 2.88 0 .96-.36 1.77-1.08 2.43-.69.66-1.53.99-2.52.99zm8.954 0c-1.02 0-1.875-.33-2.565-.99-.69-.66-1.035-1.485-1.035-2.475 0-.51.09-1.05.27-1.62.18-.57.48-1.305.9-2.205l2.925-6.03h3.42l-1.845 7.02c1.02.72 1.53 1.68 1.53 2.88 0 .96-.36 1.77-1.08 2.43-.69.66-1.53.99-2.52.99z" fill="#859DB7"/></svg>