<svg width="309" height="351" viewBox="0 0 309 351" fill="none" xmlns="http://www.w3.org/2000/svg">
<g opacity="0.1">
<path d="M12.6332 25.2664C19.6104 25.2664 25.2665 19.6104 25.2665 12.6332C25.2665 5.65609 19.6104 0 12.6332 0C5.65609 0 0 5.65609 0 12.6332C0 19.6104 5.65609 25.2664 12.6332 25.2664Z" transform="translate(115.007 220.545) rotate(30)" fill="#0066B8"/>
<path d="M8.09822 16.1964C12.5707 16.1964 16.1964 12.5707 16.1964 8.09822C16.1964 3.6257 12.5707 0 8.09822 0C3.6257 0 0 3.6257 0 8.09822C0 12.5707 3.6257 16.1964 8.09822 16.1964Z" transform="translate(190.133 92.1396) rotate(30)" fill="#0066B8"/>
<path d="M26.6494 16.3833L2.89044 31.147L0 0L26.6494 16.3833Z" transform="translate(188.058 134.127) rotate(-10)" fill="#FF455D"/>
<path d="M33.1653 20.3701L3.60059 38.7469L0 0L33.1653 20.3701Z" transform="translate(198.666 230.668) rotate(70)" fill="#FF455D"/>
<path d="M24.3445 0L20.5072 22.4258L0 7.36316L24.3445 0Z" transform="translate(183.086 185.573) rotate(30)" fill="#FF8500"/>
<path d="M14.7139 0H0V14.7138H14.7139V0Z" transform="translate(57.0251 244.886) rotate(10)" fill="#FF8500"/>
<path d="M12.6332 0H0V12.6332H12.6332V0Z" transform="translate(180.353 48.2786) rotate(10)" fill="#FF8500"/>
<path d="M6.25432 12.5086C9.70848 12.5086 12.5086 9.70849 12.5086 6.25432C12.5086 2.80016 9.70848 0 6.25432 0C2.80015 0 0 2.80016 0 6.25432C0 9.70849 2.80015 12.5086 6.25432 12.5086Z" transform="translate(6.33435 248.587) rotate(30)" fill="#FF455D"/>
<path d="M6.25432 12.5086C9.70848 12.5086 12.5086 9.70848 12.5086 6.25431C12.5086 2.80015 9.70848 0 6.25432 0C2.80015 0 0 2.80015 0 6.25431C0 9.70848 2.80015 12.5086 6.25432 12.5086Z" transform="translate(156.809 131.599) rotate(30)" fill="#FF8500"/>
<path d="M6.25432 12.5086C9.70848 12.5086 12.5086 9.70848 12.5086 6.25432C12.5086 2.80015 9.70848 0 6.25432 0C2.80015 0 0 2.80015 0 6.25432C0 9.70848 2.80015 12.5086 6.25432 12.5086Z" transform="translate(171.716 12.6394) rotate(30)" fill="#FF8500"/>
</g>
</svg>
