<svg width="379" height="397" viewBox="0 0 379 397" fill="none" xmlns="http://www.w3.org/2000/svg">
<g opacity="0.1">
<path d="M20.1611 40.3221C31.2957 40.3221 40.3221 31.2957 40.3221 20.161C40.3221 9.02641 31.2957 0 20.1611 0C9.02641 0 0 9.02641 0 20.161C0 31.2957 9.02641 40.3221 20.1611 40.3221Z" transform="translate(105.421 99.8442) rotate(50)" fill="#0066B8"/>
<path d="M10.5854 21.1707C16.4315 21.1707 21.1707 16.4315 21.1707 10.5854C21.1707 4.73923 16.4315 0 10.5854 0C4.73923 0 0 4.73923 0 10.5854C0 16.4315 4.73923 21.1707 10.5854 21.1707Z" transform="translate(169.041 176.092) rotate(50)" fill="#0066B8"/>
<path d="M6.51407 13.0281C10.1117 13.0281 13.0281 10.1117 13.0281 6.51407C13.0281 2.91645 10.1117 0 6.51407 0C2.91645 0 0 2.91645 0 6.51407C0 10.1117 2.91645 13.0281 6.51407 13.0281Z" transform="translate(218.017 230.061) rotate(50)" fill="#0066B8"/>
<path d="M8.17515 16.3503C12.6902 16.3503 16.3503 12.6902 16.3503 8.17517C16.3503 3.66015 12.6902 0 8.17515 0C3.66014 0 0 3.66015 0 8.17517C0 12.6902 3.66014 16.3503 8.17515 16.3503Z" transform="translate(127.969 373.025) rotate(50)" fill="#FF8500"/>
<path d="M8.17516 16.3503C12.6902 16.3503 16.3503 12.6902 16.3503 8.17515C16.3503 3.66014 12.6902 0 8.17516 0C3.66014 0 0 3.66014 0 8.17515C0 12.6902 3.66014 16.3503 8.17516 16.3503Z" transform="translate(209.637 146.245) rotate(50)" fill="#FF8500"/>
<path d="M25.0792 15.4058L2.71963 29.3133L0 0L25.0792 15.4058Z" transform="translate(122.396 192.472) rotate(50)" fill="#FF455D"/>
<path d="M31.7724 0H0V31.7724H31.7724V0Z" transform="translate(82.9008 262.206) rotate(30)" fill="#FF8500"/>
<path d="M10.5854 21.1707C16.4315 21.1707 21.1707 16.4315 21.1707 10.5854C21.1707 4.73923 16.4315 0 10.5854 0C4.73923 0 0 4.73923 0 10.5854C0 16.4315 4.73923 21.1707 10.5854 21.1707Z" transform="translate(234.445 76.9607) rotate(48.72)" fill="#0066B8"/>
<path d="M20.617 0L40.6152 30.6161L0 35.3063L20.617 0Z" transform="translate(297.196 88.137) rotate(50)" fill="#FF455D"/>
<path d="M16.5132 0H0V16.5132H16.5132V0Z" transform="translate(182.556 110.047) rotate(-61.29)" fill="#FF8500"/>
</g>
</svg>
