<svg width="32" height="32" viewBox="0 0 32 32" fill="none" xmlns="http://www.w3.org/2000/svg">
<path fill-rule="evenodd" clip-rule="evenodd" d="M16 29.3335C23.3521 29.3335 29.3334 23.3521 29.3334 16C29.3334 15.2642 29.9307 14.6665 30.6666 14.6665C31.4027 14.6665 32 15.2642 32 16C32 24.8228 24.8226 32 16 32C7.17737 32 0 24.8228 0 16C0 7.17725 7.17737 0 16 0C20.2947 0 24.3274 1.67871 27.354 4.72656C27.8727 5.24951 27.87 6.09326 27.3473 6.61182C26.8247 7.13135 25.98 7.12891 25.462 6.60547C22.9393 4.06543 19.5793 2.6665 16 2.6665C8.64795 2.6665 2.66663 8.64795 2.66663 16C2.66663 23.3521 8.64795 29.3335 16 29.3335ZM21.0574 11.7241C21.5774 11.2031 22.4227 11.2031 22.9427 11.7241C23.4634 12.2446 23.4634 13.0889 22.9427 13.6094L16.276 20.2759C16.016 20.5366 15.6747 20.6665 15.3334 20.6665C14.9921 20.6665 14.6508 20.5366 14.3907 20.2759L11.0574 16.9429C10.5367 16.4219 10.5367 15.5781 11.0574 15.0571C11.5774 14.5366 12.4227 14.5366 12.9427 15.0571L15.3334 17.4473L21.0574 11.7241Z" fill="url(#paint0_linear)"/>
<defs>
<linearGradient id="paint0_linear" x2="1" gradientUnits="userSpaceOnUse" gradientTransform="matrix(12.6663 9.33317 45.5266 427.235 -12.0964 -202.284)">
<stop stop-color="#632774"/>
<stop offset="1" stop-color="#CB4272"/>
<stop offset="1" stop-color="#CB4272"/>
</linearGradient>
</defs>
</svg>
