<svg width="280" height="66" viewBox="0 0 280 66" fill="none" xmlns="http://www.w3.org/2000/svg">
<g filter="url(#filter0_d)">
<path d="M19.5549 4.71463C19.5549 6.19711 18.3617 7.39517 16.8852 7.39517C15.4087 7.39517 14.2069 6.19711 14.2069 4.71463C14.2069 3.23215 15.4087 2.02548 16.8852 2.02548C18.3617 2.02548 19.5549 3.23215 19.5549 4.71463ZM46.0545 24.6678C46.0545 36.4587 36.5346 46 24.7913 46C14.1211 46 5.2879 38.0963 3.77707 27.7879C3.64831 27.8051 3.49379 27.8224 3.36503 27.8224C1.51083 27.8224 0 26.3054 0 24.4609C0 22.8147 1.15887 21.4615 2.71263 21.1598C2.84139 21.1598 2.99591 21.1771 3.14184 21.1771C3.36503 21.1771 3.58822 21.1598 3.81141 21.1167C3.83716 21.1167 3.83716 21.1167 3.85433 21.1167C5.94889 20.7633 7.53698 18.9447 7.53698 16.7469C7.53698 15.3592 6.90174 14.118 5.8888 13.3079C5.1248 12.4115 4.65267 11.2479 4.65267 9.98951C4.65267 7.18831 6.91891 4.92149 9.70021 4.92149C11.2196 4.92149 12.5502 5.57654 13.4601 6.64531C13.4601 6.64531 13.4601 6.64531 13.4773 6.64531C14.1211 7.88645 15.4087 8.73112 16.9024 8.73112C19.0313 8.73112 20.7739 6.99869 20.7739 4.86116C20.7739 4.49054 20.7138 4.1113 20.6022 3.77515H20.628C20.6022 3.64587 20.6022 3.53382 20.6022 3.41315C20.6022 1.51696 22.1216 0 23.993 0C25.8815 0 27.3924 1.51696 27.3924 3.41315V3.50796C37.8995 4.78359 46.0545 13.7819 46.0545 24.6678ZM36.3715 14.118H33.8048C31.9935 14.118 30.3883 15.2816 29.8045 17.0054C29.6329 17.4967 29.4698 18.0052 29.2981 18.531C28.7573 20.0911 28.2165 21.6684 27.6585 23.2025C27.0919 24.7798 26.5511 26.2623 26.0275 27.6931C25.5038 29.1152 25.0403 30.3564 24.5853 31.3907C24.1218 30.3391 23.6325 29.1152 23.126 27.6931C22.6281 26.2451 22.0787 24.7626 21.5207 23.2025C20.9799 21.6425 20.4219 20.0911 19.8983 18.5138C19.7095 18.0052 19.5378 17.4967 19.3747 17.0054C18.7909 15.2816 17.1857 14.118 15.3658 14.118H12.6189C13.1082 15.6005 13.7091 17.3071 14.3786 19.2033C15.074 21.0995 15.8208 23.0905 16.6449 25.1763C17.4432 27.2621 18.3016 29.3479 19.2202 31.4855C19.7867 32.7783 20.3447 34.054 20.9027 35.3123C21.5379 36.7259 22.9457 37.6223 24.4909 37.6223C26.0275 37.6223 27.4267 36.7259 28.0877 35.2951C28.6457 34.054 29.2036 32.7783 29.753 31.4855C30.6458 29.3652 31.5042 27.2621 32.3111 25.1763C33.1352 23.0905 33.8821 21.0995 34.5516 19.2033C35.247 17.3071 35.8479 15.6178 36.3715 14.118ZM3.36503 14.118C1.88854 14.118 0.695325 15.3161 0.695325 16.8072C0.695325 18.2897 1.88854 19.4877 3.36503 19.4877C4.84152 19.4877 6.04332 18.2897 6.04332 16.8072C6.04332 15.3161 4.84152 14.118 3.36503 14.118Z" transform="translate(9 9)" fill="white"/>
<path d="M19.3403 2.99944H25.3321C24.7656 4.60259 24.1218 6.41259 23.4007 8.42946C22.671 10.4549 21.8727 12.5752 21.0057 14.799C20.1473 17.0141 19.2287 19.2636 18.2673 21.5304C17.3144 23.7973 16.3358 25.9779 15.3487 28.0723H9.98349C8.98772 25.9693 8.00911 23.78 7.03909 21.5132C6.07766 19.255 5.15914 17.0141 4.28355 14.7903C3.41654 12.5752 2.6182 10.4549 1.88854 8.42946C1.15887 6.40397 0.52364 4.59397 0 2.99944H6.19783C6.66139 4.44744 7.18502 6.01611 7.75159 7.68821C8.32673 9.36032 8.91046 11.0324 9.50277 12.6959C10.0951 14.3508 10.6616 15.9453 11.211 17.4709C11.7519 18.9964 12.2755 20.3065 12.7734 21.4184C13.2369 20.3152 13.752 19.0051 14.31 17.4795C14.8679 15.9625 15.4431 14.368 16.0354 12.7045C16.6277 11.041 17.2114 9.36893 17.778 7.69683C18.3531 6.02473 18.8768 4.45606 19.3403 2.99944ZM28.1735 28.0723H33.5473V9.04141H28.1735V28.0723ZM30.8432 0.362001C29.9762 0.362001 29.2294 0.646431 28.5942 1.20667C27.9503 1.77553 27.6327 2.55125 27.6327 3.54244C27.6327 4.53363 27.9503 5.30935 28.5942 5.87821C29.2294 6.44707 29.9762 6.72288 30.8432 6.72288C31.7103 6.72288 32.4571 6.44707 33.0923 5.87821C33.7276 5.30935 34.0452 4.53363 34.0452 3.54244C34.0452 2.55125 33.7276 1.77553 33.0923 1.20667C32.4571 0.646431 31.7103 0.362001 30.8432 0.362001ZM53.2224 11.0324C52.5958 10.2567 51.7459 9.66198 50.6815 9.23965C49.6084 8.81731 48.2693 8.61046 46.664 8.61046C45.0759 8.61046 43.5651 8.7225 42.123 8.95522C40.6808 9.17931 39.5048 9.42927 38.5862 9.69646V28.0723H43.96V13.3854C44.2948 13.3337 44.6811 13.2906 45.1103 13.2561C45.5395 13.2217 45.9515 13.2044 46.3378 13.2044C47.5825 13.2044 48.441 13.5664 48.8959 14.2904C49.3509 15.0144 49.5827 16.2383 49.5827 17.9794V28.0723H54.9478V17.3243C54.9478 16.0229 54.8191 14.842 54.553 13.7819C54.2869 12.7218 53.8405 11.7995 53.2224 11.0324ZM69.8072 12.1012C69.481 13.1958 69.1462 14.3077 68.7943 15.4281C68.4423 16.5486 68.0903 17.6432 67.7298 18.7034C67.3693 19.7635 67.0259 20.7289 66.7169 21.5994C66.3735 20.7289 66.0301 19.7635 65.6868 18.7034C65.3348 17.6432 64.9828 16.5486 64.6309 15.4281C64.2789 14.3077 63.9441 13.1958 63.6179 12.1012C63.2917 10.9979 63.0085 9.98089 62.7681 9.04141H57.0767C58.2099 12.851 59.4117 16.3762 60.6735 19.6084C61.944 22.8405 63.1887 25.659 64.4163 28.0723H68.8715C70.0991 25.659 71.3524 22.8405 72.6142 19.6084C73.8761 16.3762 75.0779 12.851 76.2111 9.04141H70.657C70.4167 9.98089 70.1334 10.9979 69.8072 12.1012ZM95.5943 14.437C96.0579 15.6609 96.281 17.0227 96.281 18.5224C96.281 20.0135 96.0664 21.3839 95.6372 22.6251C95.1994 23.8748 94.5728 24.935 93.7573 25.8141C92.9418 26.6933 91.9632 27.3742 90.8215 27.8568C89.6798 28.3395 88.4007 28.5809 86.9843 28.5809C85.5936 28.5809 84.3232 28.3395 83.1815 27.8568C82.0398 27.3742 81.0612 26.6933 80.2457 25.8141C79.4301 24.935 78.7949 23.8748 78.3399 22.6251C77.8764 21.3839 77.6532 20.0135 77.6532 18.5224C77.6532 17.0227 77.885 15.6609 78.3571 14.437C78.8207 13.2044 79.4731 12.1529 80.2972 11.2824C81.1298 10.4205 82.117 9.73955 83.2587 9.25689C84.4004 8.77422 85.6366 8.53288 86.9843 8.53288C88.3578 8.53288 89.6111 8.77422 90.7528 9.25689C91.8945 9.73955 92.8731 10.4205 93.6886 11.2824C94.5041 12.1529 95.1393 13.2044 95.5943 14.437ZM90.8043 18.5224C90.8043 16.8589 90.4695 15.5488 89.8171 14.5921C89.1561 13.644 88.2118 13.1699 86.9843 13.1699C85.7567 13.1699 84.8125 13.644 84.1343 14.5921C83.4648 15.5488 83.13 16.8589 83.13 18.5224C83.13 20.1859 83.4648 21.5046 84.1343 22.4872C84.8125 23.4611 85.7567 23.9524 86.9843 23.9524C88.2118 23.9524 89.1561 23.4611 89.8171 22.4872C90.4695 21.5046 90.8043 20.1859 90.8043 18.5224ZM97.9807 7.80888H105.518V28.0723H111.132V7.80888H118.669V2.99944H97.9807V7.80888ZM129.476 8.84317C129.073 8.78284 128.661 8.73112 128.249 8.69665C127.845 8.66217 127.493 8.64493 127.21 8.64493C125.596 8.64493 124.137 8.79146 122.832 9.09312C121.519 9.39479 120.386 9.7137 119.424 10.0585V28.0723H124.789V13.5319C125.03 13.4544 125.39 13.394 125.854 13.3337C126.326 13.2734 126.729 13.2389 127.064 13.2389C127.811 13.2389 128.506 13.3079 129.15 13.4371C129.803 13.575 130.369 13.6957 130.85 13.8164L131.751 9.36893C131.459 9.24827 131.107 9.14484 130.704 9.05865C130.292 8.97246 129.888 8.9035 129.476 8.84317ZM148.937 13.0924C149.203 14.0577 149.332 15.1351 149.332 16.3159V27.5293C148.568 27.7017 147.495 27.8999 146.13 28.124C144.756 28.3568 143.1 28.4688 141.151 28.4688C139.932 28.4688 138.816 28.3654 137.82 28.1499C136.825 27.9258 135.966 27.5724 135.245 27.0811C134.524 26.5812 133.966 25.9348 133.588 25.1418C133.202 24.3489 133.013 23.3663 133.013 22.2114C133.013 21.0995 133.228 20.16 133.674 19.3929C134.12 18.6172 134.713 18.0052 135.46 17.5484C136.206 17.083 137.056 16.7555 138.018 16.5486C138.979 16.3418 139.975 16.2383 141.005 16.2383C141.709 16.2383 142.327 16.2728 142.868 16.3331C143.409 16.3935 143.846 16.4711 144.181 16.5659V16.0573C144.181 15.1437 143.907 14.4111 143.349 13.8509C142.799 13.2992 141.838 13.0234 140.464 13.0234C139.554 13.0234 138.653 13.0924 137.769 13.2217C136.876 13.3509 136.112 13.5406 135.46 13.7819L134.773 9.43789C135.09 9.34308 135.477 9.23965 135.949 9.13622C136.412 9.02417 136.928 8.92936 137.477 8.84317C138.026 8.75698 138.61 8.68803 139.228 8.62769C139.838 8.56736 140.456 8.53288 141.082 8.53288C142.67 8.53288 143.984 8.71388 145.048 9.07589C146.104 9.43789 146.945 9.95503 147.589 10.6359C148.224 11.3082 148.671 12.127 148.937 13.0924ZM144.181 20.0738C143.967 20.0307 143.64 19.979 143.211 19.9359C142.773 19.8842 142.379 19.8583 142.018 19.8583C141.512 19.8583 141.039 19.8928 140.593 19.9532C140.147 20.0135 139.76 20.1255 139.426 20.2979C139.091 20.4617 138.825 20.6944 138.627 20.9788C138.438 21.2719 138.344 21.6339 138.344 22.0648C138.344 22.9095 138.627 23.4956 139.185 23.8231C139.752 24.1506 140.533 24.3144 141.512 24.3144C142.044 24.3144 142.55 24.2972 143.031 24.2713C143.512 24.2541 143.889 24.211 144.181 24.1679V20.0738ZM164.303 12.1012C163.977 13.1958 163.633 14.3077 163.29 15.4281C162.938 16.5486 162.586 17.6432 162.217 18.7034C161.856 19.7635 161.521 20.7289 161.204 21.5994C160.869 20.7289 160.526 19.7635 160.174 18.7034C159.822 17.6432 159.478 16.5486 159.126 15.4281C158.774 14.3077 158.44 13.1958 158.113 12.1012C157.787 10.9979 157.504 9.98089 157.264 9.04141H151.572C152.697 12.851 153.899 16.3762 155.169 19.6084C156.431 22.8405 157.684 25.659 158.912 28.0723H163.367C164.595 25.659 165.839 22.8405 167.11 19.6084C168.372 16.3762 169.573 12.851 170.707 9.04141H165.153C164.912 9.98089 164.629 10.9979 164.303 12.1012ZM187.6 11.0152C189.163 12.67 189.944 15.1006 189.944 18.3069C189.944 18.6172 189.935 18.962 189.91 19.3326C189.884 19.7118 189.858 20.0393 189.841 20.3324H177.66C177.78 21.4443 178.295 22.3234 179.205 22.9698C180.124 23.6249 181.342 23.9524 182.888 23.9524C183.866 23.9524 184.836 23.8576 185.781 23.6766C186.733 23.4956 187.506 23.2715 188.107 23.0043L188.828 27.3828C188.545 27.5293 188.158 27.6758 187.678 27.8224C187.197 27.9603 186.665 28.0896 186.072 28.2016C185.48 28.305 184.853 28.3999 184.184 28.4688C183.506 28.5464 182.836 28.5809 182.158 28.5809C180.458 28.5809 178.973 28.3223 177.711 27.8224C176.449 27.3138 175.402 26.6243 174.578 25.7366C173.745 24.8574 173.136 23.8145 172.741 22.6078C172.346 21.4012 172.14 20.0997 172.14 18.7034C172.14 17.0141 172.398 15.5402 172.921 14.2732C173.436 13.0062 174.115 11.946 174.956 11.1014C175.797 10.2567 176.758 9.61889 177.857 9.18793C178.947 8.74836 180.072 8.53288 181.222 8.53288C183.918 8.53288 186.038 9.36032 187.6 11.0152ZM184.759 16.6434C184.733 16.178 184.656 15.7384 184.519 15.2989C184.39 14.8679 184.184 14.48 183.909 14.1439C183.634 13.8078 183.283 13.5319 182.862 13.3079C182.441 13.0924 181.918 12.9889 181.3 12.9889C180.699 12.9889 180.184 13.0924 179.746 13.2906C179.317 13.4975 178.956 13.7733 178.664 14.1094C178.381 14.4456 178.158 14.8334 178.003 15.2816C177.84 15.7298 177.729 16.178 177.66 16.6434H184.759ZM200.863 23.6594C200.477 23.487 200.185 23.2715 199.979 23.0043C199.781 22.7457 199.636 22.4182 199.567 22.0304C199.498 21.6425 199.455 21.2115 199.455 20.7289V0L194.09 0.861907V21.8149C194.09 22.8233 194.193 23.7369 194.399 24.5471C194.597 25.3573 194.983 26.0382 195.549 26.6071C196.116 27.1759 196.88 27.6155 197.859 27.9258C198.829 28.2447 200.099 28.4085 201.661 28.4343L202.417 23.9869C201.764 23.9352 201.249 23.8317 200.863 23.6594Z" transform="translate(66.5832 17.9552)" fill="white"/>
</g>
<defs>
<filter id="filter0_d" x="0" y="0" width="280" height="66" filterUnits="userSpaceOnUse" color-interpolation-filters="sRGB">
<feFlood flood-opacity="0" result="BackgroundImageFix"/>
<feColorMatrix in="SourceAlpha" type="matrix" values="0 0 0 0 0 0 0 0 0 0 0 0 0 0 0 0 0 0 255 0"/>
<feOffset dx="1" dy="1"/>
<feGaussianBlur stdDeviation="5"/>
<feColorMatrix type="matrix" values="0 0 0 0 0 0 0 0 0 0 0 0 0 0 0 0 0 0 0.1 0"/>
<feBlend mode="normal" in2="BackgroundImageFix" result="effect1_dropShadow"/>
<feBlend mode="normal" in="SourceGraphic" in2="effect1_dropShadow" result="shape"/>
</filter>
</defs>
</svg>
