<svg width="292" height="252" viewBox="0 0 292 252" fill="none" xmlns="http://www.w3.org/2000/svg">
<path d="M246.419 85.888C253.932 71.2464 259.154 44.5851 219.534 19.7967C182.55 -3.3258 162.63 23.9448 162.63 23.9448C162.63 23.9448 167.959 1.58269 137.494 0.0956117C107.029 -1.39147 98.7001 14.8714 81.7414 20.8365C64.7827 26.8016 59.3979 15.246 29.5582 28.6968C12.9291 36.1825 17.2302 48.4314 22.2966 58.7347C8.3319 67.6796 -0.0469045 82.679 1.12613 101.1C0.475769 103.11 0.0999748 105.2 0.00895422 107.311C-0.326198 116.669 8.81787 118.895 15.5433 126.593C8.03026 141.234 2.80747 167.896 42.4281 192.684C79.3898 215.806 99.3202 188.536 99.3202 188.536C99.3202 188.536 93.9912 210.898 124.457 212.385C154.922 213.872 163.25 197.609 180.209 191.644C197.168 185.679 202.553 197.235 232.392 183.784C249.022 176.298 244.72 164.049 239.654 153.746C253.619 144.801 261.997 129.802 260.824 111.381C261.475 109.37 261.851 107.281 261.942 105.17C262.266 95.8112 253.122 93.5861 246.419 85.888Z" transform="translate(30.05 35.2817)" fill="#C8EEFC"/>
<path d="M9.80041 215.448L6.90694 212.653C6.90694 212.653 22.9551 186.987 25.5079 177.606C25.5079 177.606 -10.0853 151.47 2.81807 121.315C2.81807 121.315 36.6182 132.406 28.3455 173.72C28.3455 173.72 43.6843 148.787 53.7389 121.555C53.7389 121.555 23.497 106.807 36.1937 80.7441C36.1937 80.7441 57.9786 84.8811 60.0844 108.294C60.0844 108.294 69.2397 87.3018 71.5243 74.8181C71.5243 74.8181 48.9574 63.2737 57.1295 38.9549C57.1295 38.9549 73.457 47.7432 75.2724 65.1745L81.7688 40.6432C81.7688 40.6432 74.3954 15.8939 92.6724 0C92.6724 0 105.52 21.5347 85.5895 40.0953L77.6743 66.0857C77.6743 66.0857 94.7448 48.537 109.173 58.818C109.173 58.818 92.4155 83.299 74.887 76.2102C74.887 76.2102 68.1504 100.507 60.1515 115.97C60.1515 115.97 77.6296 89.8008 101.872 101.546C101.872 101.546 93.946 126.106 59.2465 121.728C51.3114 139.869 42.1904 157.467 31.9428 174.408C31.9428 174.408 45.0919 145.443 79.797 149.81C79.797 149.81 77.9034 181.676 29.3733 181.866C23.8856 193.634 17.334 204.875 9.80041 215.448Z" transform="translate(174.417 7.29602)" fill="#9FDAAF"/>
<path d="M14.3724 9.91761C14.3724 15.3907 10.6243 19.8296 7.71968 19.8296C4.81503 19.8296 0 16.0057 0 10.5326C0 5.05943 4.83178 0 7.73644 0C10.6411 0 14.3724 4.43889 14.3724 9.91761Z" transform="translate(50.2407 95.7215)" fill="#C8EEFC"/>
<path d="M38.347 142.083L35.8613 141.67C35.8613 141.67 35.0011 122.505 32.9846 116.702C32.9846 116.702 5.39595 116.043 1.32385 95.6876C1.32385 95.6876 22.6451 89.1802 33.0628 113.656C33.0628 113.656 32.0964 95.1286 27.5998 77.3171C27.5998 77.3171 6.80918 80.6323 4.07769 62.4687C4.07769 62.4687 16.752 56.7104 26.1475 68.1095C26.1475 68.1095 23.3992 53.876 20.1427 46.558C20.1427 46.558 4.44077 48.7551 0 33.1407C0 33.1407 11.5181 31.7766 18.6401 40.1792L13.2664 25.0847C13.2664 25.0847 0.687061 14.8988 4.44077 0C4.44077 0 18.6959 6.52975 15.0539 23.4132L20.2153 39.799C20.2153 39.799 22.7624 24.481 33.8225 24.5704C33.8225 24.5704 33.8895 43.3881 22.3658 46.0604C22.3658 46.0604 27.5272 61.1549 28.9069 72.0788C28.9069 72.0788 28.5997 52.1318 45.24 49.4371C45.24 49.4371 49.8818 65.0906 30.4821 75.4052C32.844 87.7221 34.4021 100.18 35.1463 112.7C35.1463 112.7 31.6272 92.87 51.0269 82.5443C51.0269 82.5443 61.3664 99.7911 36.5037 117.513C37.8561 125.631 38.473 133.854 38.347 142.083Z" transform="translate(61.7866 45.7924)" fill="#7DBF8C"/>
<path d="M9.80041 215.448L6.90694 212.653C6.90694 212.653 22.9551 186.987 25.5079 177.606C25.5079 177.606 -10.0853 151.47 2.81807 121.315C2.81807 121.315 36.6182 132.406 28.3455 173.72C28.3455 173.72 43.6843 148.787 53.7389 121.555C53.7389 121.555 23.497 106.807 36.1937 80.7441C36.1937 80.7441 57.9786 84.8811 60.0844 108.294C60.0844 108.294 69.2397 87.3018 71.5243 74.8181C71.5243 74.8181 48.9574 63.2737 57.1295 38.9549C57.1295 38.9549 73.457 47.7432 75.2724 65.1745L81.7688 40.6432C81.7688 40.6432 74.3954 15.8939 92.6724 0C92.6724 0 105.52 21.5347 85.5895 40.0953L77.6743 66.0857C77.6743 66.0857 94.7448 48.537 109.173 58.818C109.173 58.818 92.4155 83.299 74.887 76.2102C74.887 76.2102 68.1504 100.507 60.1515 115.97C60.1515 115.97 77.6296 89.8008 101.872 101.546C101.872 101.546 93.946 126.106 59.2465 121.728C51.3114 139.869 42.1904 157.467 31.9428 174.408C31.9428 174.408 45.0919 145.443 79.797 149.81C79.797 149.81 77.9034 181.676 29.3733 181.866C23.8856 193.634 17.334 204.875 9.80041 215.448Z" transform="translate(174.417 7.29602)" fill="#9FDAAF"/>
<path d="M22.3516 39.5213C22.3516 39.5213 22.3516 31.292 19.8882 30.0621C17.4249 28.8322 6.73351 20.6029 5.09127 18.1319C3.44902 15.6609 -2.72895 -0.792052 1.39342 0.0297567C5.5158 0.851565 19.0839 13.6036 19.0839 13.6036C19.0839 13.6036 16.2072 4.5525 17.4416 2.90888C18.6761 1.26526 25.6361 12.8097 26.4572 14.8391C27.2784 16.8685 29.334 40.3431 29.334 40.3431L22.3516 39.5213Z" transform="translate(11.6062 107.18)" fill="#FFC6CA"/>
<path d="M34.962 3.70093C32.0852 7.40187 16.8749 36.1987 17.7016 44.8361C18.5283 53.4735 18.5227 61.7027 30.8564 67.461L7.82022 104.073L0 135.336L39.0452 135.749C39.0452 135.749 67.8181 123.819 67.8181 119.296C67.8181 114.774 57.9534 69.932 57.9534 69.932L65.7736 14.4012L41.9499 0L36.364 2.9518L34.962 3.70093Z" transform="translate(100.513 16.7104)" fill="#FFC6CA"/>
<path d="M50.5872 44.6855C50.5872 44.6855 40.7226 81.2979 44.0127 95.6936C47.3028 110.089 85.1135 118.313 85.1135 118.313L106.485 156.569C106.485 156.569 122.517 191.532 142.654 173.022C162.791 154.512 186.223 59.0756 128.689 64.4257C128.689 64.4257 136.911 55.7883 123.757 45.0936C110.602 34.3989 91.6993 33.5771 91.6993 33.5771C91.6993 33.5771 94.9893 3.13666 57.173 0.257534C19.3566 -2.62159 20.1833 19.5896 20.1833 19.5896C20.1833 19.5896 -20.1243 73.8905 13.1842 101.452L24.6911 84.1771C24.6911 84.1771 9.0507 73.8905 11.5364 61.5522C14.0221 49.2139 28.7967 20.417 28.7967 20.417C28.7967 20.417 30.8579 37.6918 50.5872 44.6855Z" transform="translate(106.673)" fill="#25228A"/>
<path d="M33.1263 23.4467C41.2817 26.3873 57.7879 11.1084 66.8315 0C66.8315 0 82.0418 10.6947 92.3142 13.1657C89.1295 35.5132 87.4815 58.0532 87.3819 80.6267C87.3819 116.406 89.8453 145.209 89.8453 145.209C89.8453 145.209 74.9796 150.048 61.9478 150.048C50.9796 150.048 22.8706 146.444 22.0495 143.151C21.2284 139.858 13.397 100.781 8.4926 92.965C3.58821 85.1495 -3.42765 51.8299 1.91803 41.957C7.26371 32.0841 17.9495 9.45919 17.9495 9.45919L32.3331 0C32.3331 0 22.8539 19.7458 33.1263 23.4467Z" transform="translate(87.5522 101.452)" fill="#FF769D"/>
<path d="M0.183718 27.1898C0.597073 25.1325 0.183724 -1.19337 7.17165 0.0421415C14.1596 1.27765 28.9566 14.0185 30.191 36.6546C31.4255 59.2906 26.4932 130.447 26.4932 130.447L4.70828 132.091C4.70828 132.091 0.183594 55.4246 0.183594 43.4246C-0.229772 33.6146 0.183718 27.1898 0.183718 27.1898Z" transform="translate(171.695 114.575)" fill="url(#paint0_linear)"/>
<path d="M74.7837 0C69.8513 0.821809 48.0664 8.63738 46.0108 25.504C43.9552 42.3707 37.7884 95.436 37.7884 95.436L16.0035 34.5551L0 33.3196C0 33.3196 8.63018 104.073 28.3595 122.176C48.0888 140.278 56.7189 109.424 56.7189 109.424L66.997 74.8685L74.7837 0Z" transform="translate(30.6902 110.911)" fill="url(#paint1_linear)"/>
<path d="M23.8321 70.9477C18.8328 70.9477 6.20312 64.5857 0.410572 61.5277C0.32108 61.4803 0.241777 61.4158 0.177203 61.3378C0.112628 61.2597 0.0640397 61.1698 0.0342146 61.0729C0.0043896 60.9761 -0.00608775 60.8744 0.0033771 60.7735C0.012842 60.6726 0.0420641 60.5746 0.0893779 60.485C0.136692 60.3955 0.201165 60.3161 0.279125 60.2515C0.357085 60.1869 0.447005 60.1382 0.543741 60.1084C0.640478 60.0785 0.742142 60.068 0.842929 60.0775C0.943715 60.087 1.04164 60.1162 1.13114 60.1636C12.6939 66.2573 23.3853 70.4893 24.5024 69.3712C26.7368 67.135 32.7975 56.636 33.3784 55.6241C33.937 53.8016 42.6118 24.0208 39.5228 16.7419C36.2495 8.8872 28.2059 1.16667 17.6877 1.558C17.5859 1.56406 17.4839 1.5494 17.388 1.51489C17.292 1.48039 17.204 1.42676 17.1294 1.35726C17.0547 1.28775 16.9949 1.20382 16.9536 1.11052C16.9122 1.01723 16.8902 0.916512 16.8889 0.814466C16.8852 0.713136 16.9014 0.612061 16.9367 0.517025C16.9721 0.42199 17.0258 0.334857 17.0948 0.260608C17.1638 0.186358 17.2467 0.126448 17.3389 0.0843082C17.431 0.0421681 17.5306 0.0186244 17.6318 0.0150194C28.9153 -0.39868 37.4784 7.80263 40.9808 16.1214C44.3323 24.099 35.2329 54.8302 34.8363 56.1328L34.7693 56.2949C34.5011 56.7701 28.1109 67.9344 25.6029 70.4446C25.1019 70.8393 24.4656 71.0201 23.8321 70.9477Z" transform="translate(129.747 14.2803)" fill="#0B52FF"/>
<path d="M0.385708 0.769533C-0.776153 2.18953 0.793474 5.48235 3.66461 6.09731C6.53575 6.71227 15.1827 12.5767 16.8975 9.64171C18.6124 6.70668 15.3391 4.66055 11.6524 3.22378C7.96574 1.78701 2.21787 -1.48345 0.385708 0.769533Z" transform="translate(112.975 65.1153)" fill="#0B52FF"/>
<path d="M16.614 0.173686C20.7643 0.961952 27.4673 10.628 21.7362 22.3122C16.0051 33.9964 9.85505 33.5883 7.60395 33.3815C5.35284 33.1746 -2.22719 28.6686 0.638363 17.3925C3.50392 6.11643 9.03393 -1.24072 16.614 0.173686Z" transform="translate(153.058 42.9633)" fill="#0B52FF"/>
<path d="M6.75332 0C6.27477 0.0928423 5.78845 0.139643 5.30099 0.139763H1.49701H1.12834C0.764405 0.120789 0.402276 0.075957 0.044688 0.005596H0V0.56465C0 1.46762 0.358404 2.33359 0.996364 2.97209C1.63432 3.61058 2.49958 3.96928 3.40179 3.96928C4.30401 3.96928 5.16927 3.61058 5.80723 2.97209C6.44519 2.33359 6.80359 1.46762 6.80359 0.56465V0.005596L6.75332 0Z" transform="translate(19.658 109.994)" fill="#0F3872"/>
<path d="M0 5.67999C0.266583 7.02855 0.88735 8.28169 1.79843 9.31046C2.70951 10.3392 3.878 11.1065 5.18369 11.5333C5.464 11.6243 5.74936 11.699 6.03833 11.7569H6.08301C6.4406 11.8273 6.80274 11.8721 7.16667 11.8911H7.53534H11.3393C11.8268 11.891 12.3131 11.8442 12.7916 11.7513H12.8363C14.5774 11.3997 16.1437 10.4571 17.2704 9.08289C18.3971 7.70872 19.0151 5.98729 19.0199 4.20967V0C16.9474 1.92221 14.5337 3.43914 11.9035 4.47243C7.33983 6.31731 2.84879 6.6751 0 5.67999Z" transform="translate(13.6143 98.2205)" fill="#003BA4"/>
<path d="M0.368665 0H0H0.368665Z" transform="translate(20.7808 110.134)" fill="#0F3872"/>
<path d="M1.45233 0C0.973779 0.0928423 0.487455 0.139643 0 0.139763C0.487455 0.139643 0.973779 0.0928423 1.45233 0Z" transform="translate(24.959 109.994)" fill="#0F3872"/>
<path d="M1.08366 0.134176C0.719721 0.115201 0.357588 0.070361 0 0C0.357588 0.070361 0.719721 0.115201 1.08366 0.134176Z" transform="translate(19.6973 109.989)" fill="#0F3872"/>
<path d="M9.18446 10.0107C14.2569 10.0107 18.3689 7.76976 18.3689 5.00537C18.3689 2.24098 14.2569 0 9.18446 0C4.11202 0 0 2.24098 0 5.00537C0 7.76976 4.11202 10.0107 9.18446 10.0107Z" transform="matrix(0.320208 -0.947347 0.947185 0.320688 5.39062 64.2599)" fill="#FEFAF6"/>
<path d="M41.1078 8.73687C38.9429 6.00376 36.1869 3.79758 33.0471 2.2843C29.9074 0.771014 26.4656 -0.00997046 22.9808 9.60919e-05C19.4959 0.0101626 16.0587 0.811018 12.9278 2.34242C9.7968 3.87382 7.05358 6.09588 4.90447 8.84145C2.75536 11.587 1.25633 14.7846 0.520146 18.1937C-0.216042 21.6027 -0.170217 25.1345 0.654175 28.5233C1.47857 31.912 3.06006 35.0696 5.27968 37.7584C7.4993 40.4472 10.2992 42.5972 13.4689 44.0467V55.5353H32.6396V44.0523C35.8184 42.5967 38.6247 40.4366 40.8461 37.7353C43.0675 35.034 44.6459 31.8624 45.4618 28.4605C46.2777 25.0585 46.3096 21.5154 45.5553 18.0993C44.801 14.6831 43.2801 11.4835 41.1078 8.74246V8.73687ZM10.1286 25.9613C7.50878 25.0724 6.70441 20.4602 8.32431 15.658C9.94422 10.8557 13.3739 7.67467 16.0105 8.53561C18.647 9.39656 19.4346 14.0367 17.8091 18.839C16.1836 23.6412 12.7483 26.8502 10.1286 25.9613Z" transform="translate(0 39.8956)" fill="url(#paint2_linear)"/>
<path d="M19.1707 0.0167709H1.17589e-06V7.0273C-0.000270382 7.51703 0.0464936 8.00565 0.139648 8.48643C2.98844 9.48713 7.47948 9.11816 12.0487 7.2677C14.6789 6.23441 17.0926 4.71748 19.1651 2.79527V0L19.1707 0.0167709Z" transform="translate(13.469 95.4196)" fill="#0062C7"/>
<defs>
<linearGradient id="paint0_linear" x2="1" gradientUnits="userSpaceOnUse" gradientTransform="matrix(-53 43 -2710.06 1388.71 1370.34 -736.929)">
<stop stop-color="#632774"/>
<stop offset="1" stop-color="#CB4272"/>
<stop offset="1" stop-color="#CB4272"/>
</linearGradient>
<linearGradient id="paint1_linear" x2="1" gradientUnits="userSpaceOnUse" gradientTransform="matrix(95 77 1911.96 4443.26 -976.669 -2157.54)">
<stop stop-color="#632774"/>
<stop offset="1" stop-color="#CB4272"/>
<stop offset="1" stop-color="#CB4272"/>
</linearGradient>
<linearGradient id="paint2_linear" x2="1" gradientUnits="userSpaceOnUse" gradientTransform="matrix(45.4175 54.8688 -76.3717 82.2422 38.1859 -41.1211)">
<stop offset="0.115031" stop-color="#FF8744"/>
<stop offset="0.834994" stop-color="#FF295C"/>
</linearGradient>
</defs>
</svg>
