<svg width="46" height="46" viewBox="0 0 46 46" fill="none" xmlns="http://www.w3.org/2000/svg">
<circle cx="23" cy="23" r="23" fill="#E3F0FF"/>
<path d="M18.4893 20.94C17.4693 20.94 16.6143 20.61 15.9243 19.95C15.2343 19.29 14.8893 18.465 14.8893 17.475C14.8893 16.965 14.9793 16.425 15.1593 15.855C15.3393 15.285 15.6393 14.55 16.0593 13.65L18.9843 7.62H22.4043L20.5593 14.64C21.5793 15.36 22.0893 16.32 22.0893 17.52C22.0893 18.48 21.7293 19.29 21.0093 19.95C20.3193 20.61 19.4793 20.94 18.4893 20.94ZM27.4443 20.94C26.4243 20.94 25.5693 20.61 24.8793 19.95C24.1893 19.29 23.8443 18.465 23.8443 17.475C23.8443 16.965 23.9343 16.425 24.1143 15.855C24.2943 15.285 24.5943 14.55 25.0143 13.65L27.9393 7.62H31.3593L29.5143 14.64C30.5343 15.36 31.0443 16.32 31.0443 17.52C31.0443 18.48 30.6843 19.29 29.9643 19.95C29.2743 20.61 28.4343 20.94 27.4443 20.94Z" transform="translate(0 7)" fill="#859DB7"/>
</svg>
